<svg width="50" height="50" viewBox="0 0 50 50" fill="none" xmlns="http://www.w3.org/2000/svg">
<g clip-path="url(#clip0_3257_27)">
<path d="M0 0H50V50H0V0Z" fill="#054ADA"/>
<path d="M27.1873 11.9102H13.3624V17.6959H27.1873V20.8618L21.6464 21.4076C13.6915 22.1718 11.168 24.0822 11.168 29.9226V31.4509C11.168 35.9267 14.4048 38.2738 18.4096 38.2738C20.2201 38.2738 22.195 37.8372 24.1701 36.8L27.1874 35.2717V37.9464H33.0027V17.6959L27.1873 11.9102ZM27.1873 29.5951L23.4568 31.5055C22.0304 32.3243 20.5492 32.7609 19.3971 32.7609C17.9708 32.7609 16.9832 32.2696 16.9832 30.4684V29.2675C17.0929 27.3571 18.3547 26.8658 22.6338 26.4292L27.1873 25.9379V29.595V29.5951Z" fill="white"/>
<path d="M33.0027 11.9102H27.1875V17.6959H33.0027V11.9102Z" fill="#FF8800"/>
<path d="M38.8181 17.6953H33.0029V37.9461H38.8181V17.6953Z" fill="#FF8800"/>
</g>
<defs>
<clipPath id="clip0_3257_27">
<rect width="50" height="50" fill="white"/>
</clipPath>
</defs>
</svg>
