<?xml version="1.0" standalone="no"?>
<!DOCTYPE svg PUBLIC "-//W3C//DTD SVG 20010904//EN"
 "http://www.w3.org/TR/2001/REC-SVG-20010904/DTD/svg10.dtd">
<svg version="1.0" xmlns="http://www.w3.org/2000/svg"
 width="500.000000pt" height="500.000000pt" viewBox="0 0 500.000000 500.000000"
 preserveAspectRatio="xMidYMid meet">

<g transform="translate(0.000000,500.000000) scale(0.100000,-0.100000)"
fill="#000000" stroke="none">
<path d="M1540 2710 l0 -670 70 0 70 0 0 670 0 670 -70 0 -70 0 0 -670z"/>
<path d="M2130 2710 l0 -670 75 0 75 0 0 670 0 670 -75 0 -75 0 0 -670z"/>
<path d="M2730 2710 l0 -670 75 0 75 0 0 670 0 670 -75 0 -75 0 0 -670z"/>
<path d="M1830 2485 l0 -445 75 0 75 0 0 445 0 445 -75 0 -75 0 0 -445z"/>
<path d="M2430 2485 l0 -445 75 0 75 0 0 445 0 445 -75 0 -75 0 0 -445z"/>
</g>
</svg>
